#!OML:ASF H:\BreakDance\Project 1\Capture day 1\Session 1\Male.ASF
:FULLY-SPECIFIED
:DEGREES
205
root 6.60549 15.729 2.17561 -12.2714 -79.8832 15.3211
lowerback -4.17071 0.993851 0.361709
upperback 3.52674 1.4565 -3.95333
thorax 6.13228 0.804583 -4.20333
lowerneck -1.56292 -1.22025 0.0163771
upperneck 3.92339 -1.79719 3.57297
head 1.51612 -0.843493 1.0779
rclavicle -1.27222e-014 1.43125e-014
rhumerus -40.2365 -13.7116 -82.3965
rradius 21.8361
rwrist 10.6365
rhand -8.39236 -23.3842
rfingers 7.12502
rthumb 17.5313 -52.6137
lclavicle -1.27222e-014 1.43125e-014
lhumerus -26.4963 -15.0793 91.9161
lradius 25.758
lwrist 14.5069
lhand -24.0436 -12.2713
lfingers 7.12502
lthumb 2.43527 17.6946
rfemur -20.4189 -11.222 1.54293
rtibia 51.3112
rfoot -16.8371 -9.88464
rtoes -23.6262
lfemur -28.5313 2.86522 -21.0362
ltibia 54.2817
lfoot -31.7891 7.07605
ltoes -22.4109
206
root 6.62214 15.7028 2.23977 -12.9576 -79.8917 15.8705
lowerback -3.9479 1.03085 0.319615
upperback 3.62365 1.50475 -3.93664
thorax 6.10863 0.826173 -4.15975
lowerneck -1.33121 -1.28291 0.0079944
upperneck 3.67334 -1.87249 3.64807
head 1.3989 -0.885388 1.10192
rclavicle -2.5842e-014 -6.36111e-015
rhumerus -39.9442 -14.4704 -81.5765
rradius 21.146
rwrist 11.7849
rhand -8.29336 -23.3905
rfingers 7.12502
rthumb 17.6266 -52.6115
lclavicle -2.5842e-014 -6.36111e-015
lhumerus -26.3105 -14.084 91.891
lradius 25.9567
lwrist 15.8623
lhand -24.6184 -11.7301
lfingers 7.12502
lthumb 1.88015 18.2414
rfemur -21.105 -11.9872 0.757135
rtibia 52.6147
rfoot -15.4394 -8.19921
rtoes -25.4516
lfemur -28.7548 2.85433 -21.3944
ltibia 54.866
lfoot -31.7827 7.08563
ltoes -22.1505
207
root 6.64019 15.6744 2.30444 -13.8471 -79.9505 16.6319
lowerback -3.70987 1.08101 0.265788
upperback 3.70937 1.57084 -3.9316
thorax 6.0657 0.855912 -4.12057
lowerneck -1.11351 -1.33931 0.0258695
upperneck 3.44561 -1.94049 3.71424
head 1.29122 -0.923299 1.11904
rclavicle -4.47266e-015 -1.59028e-015
rhumerus -39.595 -15.3265 -80.707
rradius 20.4621
rwrist 12.9947
rhand -8.20152 -23.4146
rfingers 7.12502
rthumb 17.7149 -52.6276
lclavicle -4.47266e-015 -1.59028e-015
lhumerus -26.1291 -13.0839 91.8249
lradius 26.1863
lwrist 16.9877
lhand -25.1155 -11.3395
lfingers 7.12502
lthumb 1.40002 18.6356
rfemur -21.9335 -12.598 -0.0728465
rtibia 54.0417
rfoot -13.9509 -6.37058
rtoes -26.5955
lfemur -29.0046 2.94495 -21.7834
ltibia 55.4682
lfoot -31.7587 7.07809
ltoes -21.9326
208
root 6.65938 15.6436 2.3689 -15.0337 -80.0511 17.7063
lowerback -3.46689 1.13661 0.170871
upperback 3.79108 1.6462 -3.9352
thorax 6.01527 0.888312 -4.06688
lowerneck -0.925695 -1.39297 0.0774402
upperneck 3.22135 -2.0037 3.73246
head 1.18901 -0.958814 1.11554
rclavicle -1.98785e-014 -1.82882e-014
rhumerus -39.1654 -16.2223 -79.8207
rradius 19.7931
rwrist 14.2177
rhand -8.13295 -23.4605
rfingers 7.12502
rthumb 17.7809 -52.6676
lclavicle -1.98785e-014 -1.82882e-014
lhumerus -25.9526 -12.1041 91.7282
lradius 26.4524
lwrist 17.8557
lhand -25.5123 -11.119
lfingers 7.12502
lthumb 1.01675 18.8583
rfemur -22.9089 -13.0494 -0.954214
rtibia 55.5692
rfoot -12.3158 -4.46416
rtoes -27.1058
lfemur -29.2792 3.15352 -22.2174
ltibia 56.0866
lfoot -31.7363 7.02577
ltoes -21.7037
209
root 6.67939 15.6112 2.43252 -16.5817 -80.1825 19.1592
lowerback -3.22096 1.19409 0.0114531
upperback 3.87594 1.72701 -3.94243
thorax 5.96467 0.920387 -3.98061
lowerneck -0.842921 -1.43624 0.12488
upperneck 3.04799 -2.05457 3.724
head 1.12057 -0.986767 1.10434
rclavicle 1.39149e-014 -4.92986e-014
rhumerus -38.6381 -17.129 -78.9409
rradius 19.1493
rwrist 15.4087
rhand -8.09754 -23.5444
rfingers 7.12502
rthumb 17.815 -52.7484
lclavicle 1.39149e-014 -4.92986e-014
lhumerus -25.774 -11.1714 91.619
lradius 26.7539
lwrist 18.4707
lhand -25.7658 -11.0566
lfingers 7.12502
lthumb 0.771913 18.9218
rfemur -24.016 -13.3377 -1.88616
rtibia 57.1593
rfoot -10.5131 -2.54767
rtoes -26.9869
lfemur -29.5726 3.48291 -22.7017
ltibia 56.7163
lfoot -31.7325 6.90982
ltoes -21.4556
210
root 6.70029 15.578 2.49464 -18.5988 -80.3322 21.0982
lowerback -2.96606 1.24551 -0.2524
upperback 3.96749 1.80382 -3.94644
thorax 5.91164 0.945407 -3.83297
lowerneck -0.860561 -1.46135 0.151423
upperneck 2.90343 -2.08194 3.69362
head 1.07794 -1.0019 1.08975
rclavicle 2.68359e-014 -1.11319e-014
rhumerus -37.9911 -18.0223 -78.0874
rradius 18.5346
rwrist 16.5493
rhand -8.09624 -23.6879
rfingers 7.12502
rthumb 17.8162 -52.8918
lclavicle 2.68359e-014 -1.11319e-014
lhumerus -25.5739 -10.2971 91.5125
lradius 27.0799
lwrist 18.861
lhand -25.8766 -11.1183
lfingers 7.12502
lthumb 0.664921 18.8604
rfemur -25.2302 -13.4619 -2.87427
rtibia 58.7666
rfoot -8.59303 -0.674591
rtoes -26.4046
lfemur -29.8823 3.93047 -23.2462
ltibia 57.3493
lfoot -31.7421 6.72588
ltoes -21.1979
